<?xml version="1.0" standalone="no"?>
<!DOCTYPE svg PUBLIC "-//W3C//DTD SVG 20010904//EN"
 "http://www.w3.org/TR/2001/REC-SVG-20010904/DTD/svg10.dtd">
<svg version="1.0" xmlns="http://www.w3.org/2000/svg"
 width="500.000000pt" height="500.000000pt" viewBox="0 0 500.000000 500.000000"
 preserveAspectRatio="xMidYMid meet">

<g transform="translate(0.000000,500.000000) scale(0.100000,-0.100000)"
fill="#000000" stroke="none">
<path d="M511 4772 c-8 -3 -11 -93 -11 -273 l0 -269 370 0 370 0 0 -1130 0
-1130 345 0 345 0 0 1130 0 1130 370 0 370 0 0 270 0 270 -52 2 c-103 3 -2097
3 -2107 0z"/>
<path d="M2130 3368 c0 -354 5 -697 10 -763 33 -420 240 -709 584 -814 103
-32 285 -47 388 -34 193 26 363 108 490 236 l78 78 0 -145 0 -146 73 -1 c39
-1 90 -2 112 -2 22 -1 39 3 38 8 -1 6 -4 22 -8 37 -5 21 0 34 29 66 44 48 45
73 6 113 -16 17 -32 40 -35 50 -7 20 14 66 52 117 26 35 61 42 107 21 37 -17
68 7 83 63 14 53 40 68 116 68 54 -1 75 -11 95 -45 9 -15 11 192 12 858 l0
877 -339 0 -340 0 -3 -662 c-4 -597 -6 -669 -21 -723 -63 -214 -257 -331 -487
-296 -176 28 -289 131 -335 306 -13 51 -15 155 -15 717 l0 658 -345 0 -345 0
0 -642z"/>
<path d="M4190 2043 c-52 -36 -68 -84 -46 -137 18 -44 52 -66 101 -66 47 0 79
19 100 60 19 36 19 54 0 94 -29 60 -105 84 -155 49z"/>
<path d="M620 1030 l0 -720 299 0 c330 0 415 8 531 49 201 71 340 207 411 402
72 197 57 439 -38 622 -50 97 -172 220 -268 269 -156 80 -277 98 -682 98
l-253 0 0 -720z m600 410 c139 -22 254 -109 302 -228 19 -49 22 -76 22 -182 0
-108 -3 -133 -23 -184 -25 -64 -84 -135 -141 -171 -68 -43 -129 -57 -272 -62
l-138 -6 0 422 0 421 93 0 c50 0 121 -5 157 -10z"/>
<path d="M2505 1456 c-233 -45 -393 -192 -450 -411 -21 -79 -21 -251 0 -330
52 -202 201 -349 405 -402 86 -22 245 -22 329 1 214 56 373 217 416 423 19 87
19 199 0 288 -43 202 -201 368 -401 419 -88 23 -217 28 -299 12z m223 -315
c88 -45 133 -129 134 -249 0 -42 -5 -96 -11 -119 -16 -58 -67 -122 -121 -150
-38 -21 -56 -24 -117 -21 -94 4 -145 37 -187 121 -55 109 -43 277 25 359 61
75 192 103 277 59z"/>
<path d="M3810 1459 c-132 -20 -235 -74 -324 -170 -103 -111 -154 -269 -143
-449 19 -333 239 -543 567 -543 112 -1 182 14 269 56 134 65 224 179 275 345
l7 22 -190 0 c-161 0 -191 -2 -191 -15 0 -8 -17 -32 -37 -54 -94 -98 -253 -70
-314 56 -28 58 -38 206 -20 289 30 134 153 207 269 159 44 -19 79 -50 98 -87
l15 -28 184 0 185 0 -6 28 c-3 15 -23 63 -45 108 -101 213 -334 323 -599 283z"/>
</g>
</svg>
